<?xml version="1.0" standalone="no"?>
<!DOCTYPE svg PUBLIC "-//W3C//DTD SVG 20010904//EN"
 "http://www.w3.org/TR/2001/REC-SVG-20010904/DTD/svg10.dtd">
<svg version="1.0" xmlns="http://www.w3.org/2000/svg"
 width="512.000000pt" height="512.000000pt" viewBox="0 0 512.000000 512.000000"
 preserveAspectRatio="xMidYMid meet">
<metadata>
Created by potrace 1.11, written by Peter Selinger 2001-2013
</metadata>
<g transform="translate(0.000000,512.000000) scale(0.100000,-0.100000)"
fill="#000000" stroke="none">
<path d="M1195 5106 c-209 -43 -407 -192 -502 -380 -61 -120 -78 -202 -77
-361 1 -96 5 -122 33 -205 64 -189 195 -339 374 -429 l27 -14 0 -1158 0 -1157
-46 -22 c-175 -85 -324 -274 -373 -476 -27 -108 -23 -279 9 -379 78 -247 249
-417 495 -495 80 -25 248 -35 330 -20 296 56 525 276 592 570 11 49 17 184 11
235 -11 88 -52 211 -95 285 -49 84 -180 215 -265 263 -71 41 -69 37 -53 122
67 348 250 539 660 689 75 27 496 165 580 190 6 2 17 6 25 9 8 4 53 20 100 37
513 187 848 518 975 961 22 78 47 206 58 302 3 21 7 39 8 41 2 1 30 15 62 31
275 139 434 478 372 790 -65 327 -350 569 -685 581 -275 10 -517 -118 -655
-347 -217 -356 -93 -816 275 -1022 42 -24 45 -27 42 -64 -13 -168 -121 -391
-241 -500 -119 -108 -355 -224 -611 -301 -502 -151 -735 -248 -967 -400 l-23
-14 0 623 0 624 73 39 c86 47 215 173 266 259 140 238 133 549 -17 775 -106
160 -252 263 -442 313 -63 16 -244 19 -315 5z m239 -307 c151 -35 275 -155
316 -307 26 -97 6 -228 -47 -319 -46 -78 -169 -174 -242 -188 -12 -2 -26 -7
-31 -10 -12 -7 -119 -7 -170 0 -64 9 -175 72 -225 127 -84 93 -116 183 -111
307 4 85 22 142 66 211 91 143 278 218 444 179z m2454 -4 c257 -74 383 -350
267 -590 -122 -254 -449 -316 -658 -125 -65 59 -99 113 -122 194 -91 311 204
609 513 521z m-2503 -3646 c28 -2 76 -13 109 -26 232 -90 334 -360 220 -585
-122 -242 -453 -303 -651 -121 -101 93 -145 200 -138 336 7 142 70 253 190
334 48 33 190 76 215 67 3 -1 28 -3 55 -5z"/>
</g>
</svg>
